<svg width="170" height="30" viewBox="0 0 170 30" fill="none" xmlns="http://www.w3.org/2000/svg">
<path d="M25.9999 22.9319L24.406 20.1254H19.5205L21.149 22.9319H25.9999Z" fill="#FB6D0A"/>
<path d="M4.79476 21.8232C3.37415 24.4219 -0.471876 22.239 1.05268 19.7096L6.83905 9.69606L9.73224 4.68929L11.1788 2.1859L11.9021 0.934209C11.9021 0.934209 12.0316 0.706954 12.2638 0.308363C12.4959 -0.0902284 12.7427 -0.104219 12.9665 0.276962C13.1903 0.658144 13.3076 0.871408 13.3076 0.871408L13.9897 2.0603L15.354 4.43808L18.0826 9.19365L23.5398 18.7048H11.9324C9.09123 18.6355 9.29913 14.4083 11.9324 14.339H16.125L12.5908 8.3101L8.69277 15.0666L4.79476 21.8232Z" fill="#F1F1F1"/>
<path d="M39.16 23.352C37.88 23.352 36.7173 23.0853 35.672 22.552C34.648 22.0187 33.8373 21.2293 33.24 20.184C32.6427 19.1173 32.344 17.8053 32.344 16.248C32.344 14.712 32.6533 13.4 33.272 12.312C33.912 11.2027 34.744 10.3493 35.768 9.752C36.8133 9.15467 37.944 8.856 39.16 8.856C40.4613 8.856 41.5067 9.112 42.296 9.624C43.1067 10.136 43.736 10.744 44.184 11.448L43.992 11.96L44.344 9.464H47.64V23H44.056V19.704L44.408 20.568C44.3227 20.696 44.152 20.9093 43.896 21.208C43.64 21.4853 43.288 21.7947 42.84 22.136C42.392 22.4773 41.8587 22.7653 41.24 23C40.6427 23.2347 39.9493 23.352 39.16 23.352ZM40.152 20.408C40.792 20.408 41.368 20.2907 41.88 20.056C42.4133 19.8213 42.8613 19.4907 43.224 19.064C43.608 18.6373 43.8853 18.1253 44.056 17.528V14.584C43.8853 14.0293 43.608 13.5493 43.224 13.144C42.84 12.7173 42.3707 12.3867 41.816 12.152C41.2827 11.9173 40.6853 11.8 40.024 11.8C39.2987 11.8 38.6267 11.9813 38.008 12.344C37.3893 12.7067 36.888 13.208 36.504 13.848C36.1413 14.488 35.96 15.224 35.96 16.056C35.96 16.8667 36.152 17.6027 36.536 18.264C36.92 18.9253 37.432 19.448 38.072 19.832C38.712 20.216 39.4053 20.408 40.152 20.408ZM60.813 23.352C59.8743 23.352 58.9677 23.1493 58.093 22.744C57.2183 22.3387 56.5143 21.784 55.981 21.08L56.173 19.992V29.496H52.589V9.208H55.693L56.173 12.344L55.853 11.384C56.5143 10.6587 57.3143 10.0613 58.253 9.592C59.213 9.10133 60.2903 8.856 61.485 8.856C62.765 8.856 63.9063 9.15467 64.909 9.752C65.9117 10.3493 66.701 11.2027 67.277 12.312C67.8743 13.4 68.173 14.6907 68.173 16.184C68.173 17.6773 67.853 18.9573 67.213 20.024C66.573 21.0907 65.6983 21.912 64.589 22.488C63.4797 23.064 62.221 23.352 60.813 23.352ZM60.109 20.504C60.8983 20.504 61.6237 20.3227 62.285 19.96C62.9677 19.5973 63.5117 19.096 63.917 18.456C64.3223 17.7947 64.525 17.0587 64.525 16.248C64.525 15.3947 64.333 14.648 63.949 14.008C63.5863 13.3467 63.085 12.8347 62.445 12.472C61.8263 12.088 61.133 11.896 60.365 11.896C59.661 11.896 59.0317 12.0133 58.477 12.248C57.9223 12.4827 57.453 12.824 57.069 13.272C56.685 13.6987 56.3863 14.2107 56.173 14.808V17.528C56.3223 18.104 56.5783 18.616 56.941 19.064C57.3037 19.512 57.7623 19.864 58.317 20.12C58.8717 20.376 59.469 20.504 60.109 20.504ZM75.196 9.464L75.516 12.376L75.388 11.992C75.8573 11.0533 76.5507 10.3067 77.468 9.752C78.4067 9.176 79.516 8.888 80.796 8.888C82.076 8.888 83.132 9.26133 83.964 10.008C84.796 10.7547 85.2227 11.736 85.244 12.952V23H81.66V14.232C81.6387 13.5493 81.4467 13.0053 81.084 12.6C80.7213 12.1733 80.1453 11.9493 79.356 11.928C78.6307 11.928 77.98 12.152 77.404 12.6C76.828 13.0267 76.3693 13.624 76.028 14.392C75.708 15.1387 75.548 16.0027 75.548 16.984V23H71.964V9.464H75.196ZM95.8788 23.352C94.5988 23.352 93.4361 23.0853 92.3908 22.552C91.3668 22.0187 90.5561 21.2293 89.9588 20.184C89.3614 19.1173 89.0628 17.8053 89.0628 16.248C89.0628 14.712 89.3721 13.4 89.9908 12.312C90.6308 11.2027 91.4628 10.3493 92.4868 9.752C93.5321 9.15467 94.6628 8.856 95.8788 8.856C97.1801 8.856 98.2254 9.112 99.0148 9.624C99.8254 10.136 100.455 10.744 100.903 11.448L100.711 11.96L101.063 9.464H104.359V23H100.775V19.704L101.127 20.568C101.041 20.696 100.871 20.9093 100.615 21.208C100.359 21.4853 100.007 21.7947 99.5588 22.136C99.1108 22.4773 98.5774 22.7653 97.9588 23C97.3614 23.2347 96.6681 23.352 95.8788 23.352ZM96.8708 20.408C97.5108 20.408 98.0868 20.2907 98.5988 20.056C99.1321 19.8213 99.5801 19.4907 99.9428 19.064C100.327 18.6373 100.604 18.1253 100.775 17.528V14.584C100.604 14.0293 100.327 13.5493 99.9428 13.144C99.5588 12.7173 99.0894 12.3867 98.5348 12.152C98.0014 11.9173 97.4041 11.8 96.7428 11.8C96.0174 11.8 95.3454 11.9813 94.7268 12.344C94.1081 12.7067 93.6068 13.208 93.2228 13.848C92.8601 14.488 92.6788 15.224 92.6788 16.056C92.6788 16.8667 92.8708 17.6027 93.2548 18.264C93.6388 18.9253 94.1508 19.448 94.7908 19.832C95.4308 20.216 96.1241 20.408 96.8708 20.408ZM120.508 21.752C119.91 22.2427 119.174 22.6373 118.3 22.936C117.446 23.2133 116.582 23.352 115.708 23.352C114.214 23.352 112.902 23.064 111.772 22.488C110.641 21.8907 109.756 21.0693 109.116 20.024C108.497 18.9573 108.188 17.688 108.188 16.216C108.188 14.744 108.518 13.4747 109.18 12.408C109.862 11.3413 110.748 10.5307 111.836 9.976C112.945 9.4 114.118 9.112 115.356 9.112C116.486 9.112 117.489 9.272 118.364 9.592C119.238 9.89067 119.996 10.3067 120.636 10.84L118.844 13.176C118.502 12.8987 118.054 12.6427 117.5 12.408C116.966 12.152 116.358 12.024 115.676 12.024C114.95 12.024 114.289 12.2053 113.692 12.568C113.116 12.9307 112.646 13.432 112.284 14.072C111.942 14.6907 111.772 15.4053 111.772 16.216C111.772 16.984 111.953 17.688 112.316 18.328C112.678 18.968 113.18 19.48 113.82 19.864C114.46 20.2267 115.196 20.408 116.028 20.408C116.561 20.408 117.052 20.3333 117.5 20.184C117.969 20.0133 118.374 19.7893 118.716 19.512L120.508 21.752ZM129.879 23.352C128.599 23.352 127.436 23.0853 126.391 22.552C125.367 22.0187 124.556 21.2293 123.959 20.184C123.361 19.1173 123.063 17.8053 123.063 16.248C123.063 14.712 123.372 13.4 123.991 12.312C124.631 11.2027 125.463 10.3493 126.487 9.752C127.532 9.15467 128.663 8.856 129.879 8.856C131.18 8.856 132.225 9.112 133.015 9.624C133.825 10.136 134.455 10.744 134.903 11.448L134.711 11.96L135.063 9.464H138.359V23H134.775V19.704L135.127 20.568C135.041 20.696 134.871 20.9093 134.615 21.208C134.359 21.4853 134.007 21.7947 133.559 22.136C133.111 22.4773 132.577 22.7653 131.959 23C131.361 23.2347 130.668 23.352 129.879 23.352ZM130.871 20.408C131.511 20.408 132.087 20.2907 132.599 20.056C133.132 19.8213 133.58 19.4907 133.943 19.064C134.327 18.6373 134.604 18.1253 134.775 17.528V14.584C134.604 14.0293 134.327 13.5493 133.943 13.144C133.559 12.7173 133.089 12.3867 132.535 12.152C132.001 11.9173 131.404 11.8 130.743 11.8C130.017 11.8 129.345 11.9813 128.727 12.344C128.108 12.7067 127.607 13.208 127.223 13.848C126.86 14.488 126.679 15.224 126.679 16.056C126.679 16.8667 126.871 17.6027 127.255 18.264C127.639 18.9253 128.151 19.448 128.791 19.832C129.431 20.216 130.124 20.408 130.871 20.408ZM146.54 9.464L146.86 13.304L146.732 12.76C147.116 11.9493 147.638 11.256 148.3 10.68C148.982 10.0827 149.676 9.63467 150.38 9.336C151.084 9.016 151.66 8.856 152.108 8.856L151.948 12.44C150.924 12.3547 150.028 12.5467 149.26 13.016C148.513 13.464 147.926 14.0613 147.5 14.808C147.094 15.5547 146.892 16.344 146.892 17.176V23H143.308V9.464H146.54ZM161.647 23.352C160.047 23.352 158.681 23.0427 157.551 22.424C156.42 21.8053 155.556 20.952 154.959 19.864C154.361 18.7547 154.063 17.5067 154.063 16.12C154.063 14.7547 154.404 13.528 155.087 12.44C155.769 11.352 156.687 10.488 157.839 9.848C159.012 9.18667 160.303 8.856 161.711 8.856C163.567 8.856 165.092 9.4 166.287 10.488C167.503 11.5547 168.313 13.0693 168.719 15.032L157.807 18.712L156.975 16.696L165.487 13.656L164.751 14.072C164.516 13.432 164.132 12.8773 163.599 12.408C163.087 11.9387 162.361 11.704 161.423 11.704C160.676 11.704 160.015 11.8853 159.439 12.248C158.863 12.5893 158.404 13.08 158.063 13.72C157.743 14.3387 157.583 15.0747 157.583 15.928C157.583 16.8027 157.764 17.5707 158.127 18.232C158.489 18.8933 158.98 19.4053 159.599 19.768C160.217 20.1093 160.921 20.28 161.711 20.28C162.265 20.28 162.799 20.184 163.311 19.992C163.823 19.8 164.303 19.544 164.751 19.224L166.383 21.88C165.679 22.328 164.9 22.6907 164.047 22.968C163.215 23.224 162.415 23.352 161.647 23.352Z" fill="#F1F1F1"/>
</svg>
