<svg width="211" height="38" viewBox="0 0 211 38" fill="none" xmlns="http://www.w3.org/2000/svg">
<path d="M41.8018 37.8912L39.1682 33.2538H31.0957L33.7865 37.8912H41.8018Z" fill="#FB6D0A"/>
<path d="M6.76358 36.0592C4.41625 40.3531 -1.93867 36.7462 0.580405 32.5669L10.1414 16.0211L14.9219 7.74827L17.3122 3.61184L18.5073 1.54363C18.5073 1.54363 18.7213 1.16812 19.1049 0.509518C19.4885 -0.149087 19.8962 -0.172205 20.266 0.457634C20.6358 1.08747 20.8296 1.43986 20.8296 1.43986L21.9567 3.4043L24.211 7.33319L28.7196 15.191L37.7367 30.9066H18.5574C13.8628 30.7921 14.2063 23.8073 18.5574 23.6928H25.4849L19.6452 13.7311L13.2044 24.8951L6.76358 36.0592Z" fill="#1B1B1B"/>
<path d="M103.544 35.3C103.312 35.3 103.136 35.252 103.016 35.156C102.896 35.068 102.808 34.92 102.752 34.712C102.704 34.496 102.68 34.188 102.68 33.788C102.68 33.364 102.684 33.044 102.692 32.828C102.7 31.948 102.692 31.252 102.668 30.74C102.644 30.228 102.576 29.736 102.464 29.264C102.352 28.792 102.168 28.404 101.912 28.1C102.168 27.9 102.452 27.8 102.764 27.8C103.1 27.8 103.356 27.916 103.532 28.148C103.716 28.38 103.844 28.76 103.916 29.288C103.988 29.808 104.024 30.548 104.024 31.508V33.02C104.024 33.716 104.02 34.132 104.012 34.268H104.132C104.956 33.236 105.56 32.288 105.944 31.424C106.328 30.552 106.568 29.88 106.664 29.408C106.672 29.392 106.676 29.38 106.676 29.372C106.676 29.356 106.676 29.344 106.676 29.336C106.676 29.256 106.644 29.16 106.58 29.048C106.516 28.928 106.452 28.816 106.388 28.712C106.308 28.608 106.256 28.524 106.232 28.46C106.384 28.348 106.516 28.272 106.628 28.232C106.748 28.184 106.872 28.16 107 28.16C107.232 28.16 107.412 28.236 107.54 28.388C107.676 28.54 107.744 28.752 107.744 29.024C107.744 29.384 107.656 29.78 107.48 30.212C107.304 30.636 107.004 31.232 106.58 32C106.54 32.064 106.5 32.132 106.46 32.204C106.42 32.276 106.38 32.352 106.34 32.432C105.908 33.208 105.54 33.8 105.236 34.208C104.932 34.616 104.648 34.9 104.384 35.06C104.128 35.22 103.848 35.3 103.544 35.3ZM107.696 35.3C107.408 35.3 107.184 35.232 107.024 35.096C106.864 34.96 106.748 34.776 106.676 34.544C106.612 34.304 106.568 33.996 106.544 33.62L106.172 28.472C106.268 28.368 106.388 28.292 106.532 28.244C106.676 28.188 106.832 28.16 107 28.16L107.312 28.88L107.504 34.268H107.624C108.432 32.94 109.02 31.856 109.388 31.016C109.764 30.168 109.952 29.528 109.952 29.096C109.952 28.704 109.872 28.372 109.712 28.1C109.912 27.988 110.08 27.912 110.216 27.872C110.36 27.824 110.512 27.8 110.672 27.8C110.88 27.8 111.04 27.88 111.152 28.04C111.272 28.2 111.332 28.416 111.332 28.688C111.332 29.008 111.24 29.432 111.056 29.96C110.88 30.48 110.608 31.112 110.24 31.856C109.872 32.6 109.408 33.456 108.848 34.424L109.04 34.784C108.896 34.936 108.696 35.06 108.44 35.156C108.184 35.252 107.936 35.3 107.696 35.3ZM115.617 35.3C114.769 35.3 114.105 35.04 113.625 34.52C113.145 34 112.905 33.284 112.905 32.372C112.905 31.508 113.093 30.728 113.469 30.032C113.845 29.336 114.365 28.792 115.029 28.4C115.693 28 116.433 27.8 117.249 27.8C117.881 27.8 118.373 27.952 118.725 28.256C119.085 28.56 119.265 28.98 119.265 29.516C119.265 30.084 119.061 30.572 118.653 30.98C118.245 31.38 117.649 31.688 116.865 31.904C116.089 32.112 115.149 32.216 114.045 32.216L114.189 31.544C115.381 31.552 116.305 31.376 116.961 31.016C117.625 30.648 117.957 30.136 117.957 29.48C117.957 29.2 117.873 28.976 117.705 28.808C117.537 28.64 117.317 28.556 117.045 28.556C116.573 28.556 116.133 28.732 115.725 29.084C115.317 29.428 114.993 29.9 114.753 30.5C114.513 31.092 114.393 31.74 114.393 32.444C114.393 33.084 114.513 33.588 114.753 33.956C114.993 34.316 115.321 34.496 115.737 34.496C116.257 34.496 116.681 34.332 117.009 34.004C117.337 33.676 117.517 33.24 117.549 32.696C117.861 32.696 118.101 32.756 118.269 32.876C118.437 32.988 118.521 33.168 118.521 33.416C118.521 33.736 118.393 34.044 118.137 34.34C117.881 34.628 117.529 34.86 117.081 35.036C116.641 35.212 116.153 35.3 115.617 35.3ZM127.421 35.3C126.541 35.3 125.849 35.044 125.345 34.532C124.849 34.02 124.601 33.308 124.601 32.396C124.601 31.532 124.793 30.752 125.177 30.056C125.561 29.352 126.085 28.8 126.749 28.4C127.413 28 128.141 27.8 128.933 27.8C129.437 27.8 129.833 27.884 130.121 28.052C130.417 28.212 130.565 28.436 130.565 28.724C130.565 28.964 130.469 29.168 130.277 29.336C130.093 29.496 129.861 29.576 129.581 29.576C129.285 29.576 129.017 29.508 128.777 29.372C128.537 29.236 128.341 29.016 128.189 28.712C127.781 28.888 127.417 29.16 127.097 29.528C126.777 29.896 126.525 30.336 126.341 30.848C126.165 31.352 126.077 31.892 126.077 32.468C126.077 33.1 126.193 33.596 126.425 33.956C126.665 34.316 126.993 34.496 127.409 34.496C127.745 34.496 128.045 34.412 128.309 34.244C128.573 34.076 128.781 33.848 128.933 33.56C129.085 33.264 129.173 32.936 129.197 32.576C129.509 32.576 129.749 32.636 129.917 32.756C130.085 32.876 130.169 33.06 130.169 33.308C130.169 33.668 130.045 34 129.797 34.304C129.549 34.608 129.213 34.848 128.789 35.024C128.373 35.208 127.917 35.3 127.421 35.3ZM134.202 35.3C133.77 35.3 133.386 35.184 133.05 34.952C132.722 34.72 132.466 34.392 132.282 33.968C132.106 33.536 132.018 33.04 132.018 32.48C132.018 31.616 132.222 30.828 132.63 30.116C133.038 29.396 133.594 28.832 134.298 28.424C135.002 28.008 135.778 27.8 136.626 27.8C136.994 27.8 137.37 27.832 137.754 27.896C137.85 28.064 137.898 28.252 137.898 28.46C136.994 28.46 136.21 28.632 135.546 28.976C134.882 29.32 134.374 29.796 134.022 30.404C133.67 31.004 133.494 31.684 133.494 32.444C133.494 32.988 133.606 33.412 133.83 33.716C134.054 34.02 134.37 34.172 134.778 34.172C135.522 34.172 136.134 33.7 136.614 32.756C137.094 31.804 137.454 30.372 137.694 28.46C137.782 28.348 137.894 28.26 138.03 28.196C138.174 28.132 138.318 28.1 138.462 28.1C138.662 28.1 138.818 28.148 138.93 28.244C139.05 28.34 139.11 28.472 139.11 28.64C139.11 28.824 139.082 29.044 139.026 29.3C138.978 29.556 138.894 29.932 138.774 30.428C138.582 31.236 138.434 31.936 138.33 32.528C138.226 33.12 138.174 33.724 138.174 34.34C138.174 34.62 138.246 34.828 138.39 34.964C138.142 35.188 137.874 35.3 137.586 35.3C137.314 35.3 137.106 35.216 136.962 35.048C136.818 34.88 136.746 34.636 136.746 34.316C136.746 34.14 136.774 33.9 136.83 33.596L136.71 33.536C136.422 34.096 136.058 34.532 135.618 34.844C135.186 35.148 134.714 35.3 134.202 35.3ZM142.135 35.3C141.863 35.3 141.659 35.216 141.523 35.048C141.387 34.888 141.319 34.64 141.319 34.304C141.319 33.976 141.427 33.256 141.643 32.144C141.867 31.024 142.107 29.976 142.363 29L141.835 28.4C142.051 28.224 142.259 28.088 142.459 27.992C142.667 27.888 142.855 27.836 143.023 27.836C143.247 27.836 143.411 27.9 143.515 28.028C143.619 28.148 143.671 28.304 143.671 28.496C143.671 28.744 143.627 29.016 143.539 29.312C143.459 29.6 143.339 29.94 143.179 30.332L143.299 30.392C143.547 29.8 143.799 29.312 144.055 28.928C144.319 28.544 144.583 28.26 144.847 28.076C145.119 27.884 145.391 27.788 145.663 27.788C145.927 27.788 146.123 27.848 146.251 27.968C146.387 28.08 146.455 28.256 146.455 28.496C146.455 28.76 146.351 28.972 146.143 29.132C145.935 29.292 145.663 29.372 145.327 29.372C144.903 29.372 144.491 29.612 144.091 30.092C143.691 30.572 143.367 31.196 143.119 31.964C142.871 32.732 142.747 33.524 142.747 34.34C142.747 34.636 142.795 34.844 142.891 34.964C142.651 35.188 142.399 35.3 142.135 35.3ZM149.402 35.3C148.554 35.3 147.89 35.04 147.41 34.52C146.93 34 146.69 33.284 146.69 32.372C146.69 31.508 146.878 30.728 147.254 30.032C147.63 29.336 148.15 28.792 148.814 28.4C149.478 28 150.218 27.8 151.034 27.8C151.666 27.8 152.158 27.952 152.51 28.256C152.87 28.56 153.05 28.98 153.05 29.516C153.05 30.084 152.846 30.572 152.438 30.98C152.03 31.38 151.434 31.688 150.65 31.904C149.874 32.112 148.934 32.216 147.83 32.216L147.974 31.544C149.166 31.552 150.09 31.376 150.746 31.016C151.41 30.648 151.742 30.136 151.742 29.48C151.742 29.2 151.658 28.976 151.49 28.808C151.322 28.64 151.102 28.556 150.83 28.556C150.358 28.556 149.918 28.732 149.51 29.084C149.102 29.428 148.778 29.9 148.538 30.5C148.298 31.092 148.178 31.74 148.178 32.444C148.178 33.084 148.298 33.588 148.538 33.956C148.778 34.316 149.106 34.496 149.522 34.496C150.042 34.496 150.466 34.332 150.794 34.004C151.122 33.676 151.302 33.24 151.334 32.696C151.646 32.696 151.886 32.756 152.054 32.876C152.222 32.988 152.306 33.168 152.306 33.416C152.306 33.736 152.178 34.044 151.922 34.34C151.666 34.628 151.314 34.86 150.866 35.036C150.426 35.212 149.938 35.3 149.402 35.3ZM159.49 37.4C159.242 37.4 159.046 37.316 158.902 37.148C158.766 36.988 158.698 36.76 158.698 36.464C158.698 36.064 158.786 35.384 158.962 34.424C159.146 33.464 159.466 31.876 159.922 29.66C159.85 28.94 159.814 28.316 159.814 27.788C159.814 27.012 159.97 26.448 160.282 26.096C160.594 25.736 161.006 25.556 161.518 25.556C161.838 25.556 162.102 25.644 162.31 25.82C162.518 25.988 162.622 26.204 162.622 26.468C162.622 26.724 162.534 26.932 162.358 27.092C162.182 27.252 161.958 27.332 161.686 27.332C161.31 27.332 160.994 27.22 160.738 26.996L160.618 27.08L161.266 30.02C160.938 31.236 160.666 32.464 160.45 33.704C160.234 34.944 160.126 35.856 160.126 36.44C160.126 36.744 160.214 36.956 160.39 37.076C160.046 37.292 159.746 37.4 159.49 37.4ZM158.686 30.692C158.63 30.564 158.602 30.432 158.602 30.296C158.602 30.016 158.726 29.812 158.974 29.684C159.23 29.548 159.554 29.48 159.946 29.48C160.242 29.48 160.622 29.444 161.086 29.372C161.55 29.3 161.95 29.208 162.286 29.096C162.342 29.224 162.37 29.356 162.37 29.492C162.37 29.764 162.242 29.968 161.986 30.104C161.738 30.24 161.418 30.308 161.026 30.308C160.73 30.308 160.35 30.344 159.886 30.416C159.43 30.488 159.03 30.58 158.686 30.692ZM166.493 35.3C165.917 35.3 165.409 35.172 164.969 34.916C164.537 34.652 164.201 34.284 163.961 33.812C163.729 33.332 163.613 32.776 163.613 32.144C163.613 31.296 163.789 30.544 164.141 29.888C164.501 29.232 165.001 28.72 165.641 28.352C166.281 27.984 167.005 27.8 167.813 27.8C168.149 27.8 168.457 27.832 168.737 27.896C168.825 28.024 168.877 28.212 168.893 28.46C168.093 28.46 167.409 28.62 166.841 28.94C166.273 29.26 165.841 29.708 165.545 30.284C165.249 30.852 165.101 31.5 165.101 32.228C165.101 32.94 165.233 33.496 165.497 33.896C165.761 34.296 166.137 34.496 166.625 34.496C167.097 34.496 167.521 34.364 167.897 34.1C168.281 33.836 168.593 33.46 168.833 32.972C169.081 32.484 169.237 31.916 169.301 31.268C168.973 31.06 168.733 30.832 168.581 30.584C168.437 30.336 168.365 30.044 168.365 29.708C168.365 29.508 168.405 29.328 168.485 29.168C168.573 29 168.689 28.872 168.833 28.784C168.977 28.688 169.141 28.64 169.325 28.64C169.693 28.64 169.981 28.804 170.189 29.132C170.397 29.46 170.501 29.916 170.501 30.5C170.501 31.38 170.321 32.188 169.961 32.924C169.609 33.652 169.125 34.232 168.509 34.664C167.901 35.088 167.229 35.3 166.493 35.3ZM173.388 35.3C173.116 35.3 172.912 35.216 172.776 35.048C172.64 34.888 172.572 34.64 172.572 34.304C172.572 33.976 172.68 33.256 172.896 32.144C173.12 31.024 173.36 29.976 173.616 29L173.088 28.4C173.304 28.224 173.512 28.088 173.712 27.992C173.92 27.888 174.108 27.836 174.276 27.836C174.5 27.836 174.664 27.9 174.768 28.028C174.872 28.148 174.924 28.304 174.924 28.496C174.924 28.744 174.88 29.016 174.792 29.312C174.712 29.6 174.592 29.94 174.432 30.332L174.552 30.392C174.8 29.8 175.052 29.312 175.308 28.928C175.572 28.544 175.836 28.26 176.1 28.076C176.372 27.884 176.644 27.788 176.916 27.788C177.18 27.788 177.376 27.848 177.504 27.968C177.64 28.08 177.708 28.256 177.708 28.496C177.708 28.76 177.604 28.972 177.396 29.132C177.188 29.292 176.916 29.372 176.58 29.372C176.156 29.372 175.744 29.612 175.344 30.092C174.944 30.572 174.62 31.196 174.372 31.964C174.124 32.732 174 33.524 174 34.34C174 34.636 174.048 34.844 174.144 34.964C173.904 35.188 173.652 35.3 173.388 35.3ZM181.937 37.4C181.433 37.4 181.057 37.312 180.809 37.136C180.561 36.96 180.437 36.72 180.437 36.416C180.437 36.304 180.461 36.184 180.509 36.056C180.557 35.936 180.613 35.828 180.677 35.732C180.845 35.924 181.041 36.08 181.265 36.2C181.489 36.32 181.805 36.38 182.213 36.38C182.853 36.38 183.573 36.12 184.373 35.6C185.181 35.088 185.881 34.26 186.473 33.116C187.073 31.972 187.373 30.52 187.373 28.76C187.373 28.432 187.365 28.212 187.349 28.1C187.533 27.988 187.685 27.912 187.805 27.872C187.925 27.824 188.053 27.8 188.189 27.8C188.597 27.8 188.801 28.04 188.801 28.52C188.801 29.816 188.513 31.156 187.937 32.54C187.361 33.924 186.549 35.08 185.501 36.008C184.461 36.936 183.273 37.4 181.937 37.4ZM185.069 35.3C184.397 35.3 183.901 35.12 183.581 34.76C183.261 34.4 183.057 33.964 182.969 33.452C182.889 32.932 182.837 32.236 182.813 31.364C182.805 30.788 182.785 30.316 182.753 29.948C182.721 29.572 182.649 29.22 182.537 28.892C182.433 28.564 182.269 28.3 182.045 28.1C182.301 27.9 182.577 27.8 182.873 27.8C183.297 27.8 183.605 27.952 183.797 28.256C183.997 28.552 184.117 28.92 184.157 29.36C184.205 29.792 184.229 30.384 184.229 31.136C184.237 31.944 184.265 32.584 184.313 33.056C184.369 33.528 184.513 33.932 184.745 34.268C184.985 34.596 185.353 34.76 185.849 34.76L185.069 35.3ZM192.977 35.3C192.401 35.3 191.893 35.172 191.453 34.916C191.021 34.652 190.685 34.284 190.445 33.812C190.213 33.332 190.097 32.776 190.097 32.144C190.097 31.296 190.273 30.544 190.625 29.888C190.985 29.232 191.485 28.72 192.125 28.352C192.765 27.984 193.489 27.8 194.297 27.8C194.633 27.8 194.941 27.832 195.221 27.896C195.309 28.024 195.361 28.212 195.377 28.46C194.577 28.46 193.893 28.62 193.325 28.94C192.757 29.26 192.325 29.708 192.029 30.284C191.733 30.852 191.585 31.5 191.585 32.228C191.585 32.94 191.717 33.496 191.981 33.896C192.245 34.296 192.621 34.496 193.109 34.496C193.581 34.496 194.005 34.364 194.381 34.1C194.765 33.836 195.077 33.46 195.317 32.972C195.565 32.484 195.721 31.916 195.785 31.268C195.457 31.06 195.217 30.832 195.065 30.584C194.921 30.336 194.849 30.044 194.849 29.708C194.849 29.508 194.889 29.328 194.969 29.168C195.057 29 195.173 28.872 195.317 28.784C195.461 28.688 195.625 28.64 195.809 28.64C196.177 28.64 196.465 28.804 196.673 29.132C196.881 29.46 196.985 29.916 196.985 30.5C196.985 31.38 196.805 32.188 196.445 32.924C196.093 33.652 195.609 34.232 194.993 34.664C194.385 35.088 193.713 35.3 192.977 35.3ZM200.893 35.3C200.237 35.3 199.753 35.144 199.441 34.832C199.129 34.512 198.973 34.02 198.973 33.356C198.973 33.028 198.997 32.692 199.045 32.348C199.101 32.004 199.185 31.548 199.297 30.98C199.385 30.54 199.453 30.168 199.501 29.864C199.549 29.56 199.573 29.288 199.573 29.048C199.573 28.872 199.561 28.708 199.537 28.556C199.513 28.396 199.481 28.252 199.441 28.124C199.601 28.028 199.769 27.952 199.945 27.896C200.121 27.832 200.265 27.8 200.377 27.8C200.609 27.8 200.777 27.864 200.881 27.992C200.993 28.112 201.049 28.308 201.049 28.58C201.049 28.78 201.017 29.06 200.953 29.42C200.889 29.78 200.793 30.26 200.665 30.86C200.577 31.3 200.493 31.728 200.413 32.144C200.341 32.552 200.305 32.848 200.305 33.032C200.305 33.488 200.401 33.832 200.593 34.064C200.785 34.296 201.069 34.412 201.445 34.412C201.909 34.412 202.341 34.24 202.741 33.896C203.141 33.544 203.457 33.064 203.689 32.456L203.605 34.28L203.185 34.064C202.929 34.424 202.585 34.72 202.153 34.952C201.721 35.184 201.301 35.3 200.893 35.3ZM204.109 35.3C203.837 35.3 203.633 35.208 203.497 35.024C203.369 34.84 203.305 34.552 203.305 34.16C203.305 33.84 203.381 33.284 203.533 32.492C203.685 31.692 203.937 30.536 204.289 29.024L203.797 28.304C203.957 28.16 204.169 28.04 204.433 27.944C204.697 27.848 204.937 27.8 205.153 27.8C205.393 27.8 205.561 27.852 205.657 27.956C205.761 28.052 205.813 28.22 205.813 28.46C205.813 28.5 205.789 28.62 205.741 28.82C205.701 29.02 205.649 29.244 205.585 29.492C205.329 30.588 205.121 31.528 204.961 32.312C204.809 33.096 204.733 33.772 204.733 34.34C204.733 34.644 204.801 34.856 204.937 34.976C204.697 35.192 204.421 35.3 204.109 35.3Z" fill="#1B1B1B"/>
<path d="M47.2005 23.44C45.6005 23.44 44.1472 23.1067 42.8405 22.44C41.5605 21.7733 40.5472 20.7867 39.8005 19.48C39.0538 18.1467 38.6805 16.5067 38.6805 14.56C38.6805 12.64 39.0672 11 39.8405 9.64C40.6405 8.25333 41.6805 7.18667 42.9605 6.44C44.2672 5.69333 45.6805 5.32 47.2005 5.32C48.8272 5.32 50.1338 5.64 51.1205 6.28C52.1338 6.92 52.9205 7.68 53.4805 8.56L53.2405 9.2L53.6805 6.08H57.8005V23H53.3205V18.88L53.7605 19.96C53.6538 20.12 53.4405 20.3867 53.1205 20.76C52.8005 21.1067 52.3605 21.4933 51.8005 21.92C51.2405 22.3467 50.5738 22.7067 49.8005 23C49.0538 23.2933 48.1872 23.44 47.2005 23.44ZM48.4405 19.76C49.2405 19.76 49.9605 19.6133 50.6005 19.32C51.2672 19.0267 51.8272 18.6133 52.2805 18.08C52.7605 17.5467 53.1072 16.9067 53.3205 16.16V12.48C53.1072 11.7867 52.7605 11.1867 52.2805 10.68C51.8005 10.1467 51.2138 9.73333 50.5205 9.44C49.8538 9.14667 49.1072 9 48.2805 9C47.3738 9 46.5338 9.22667 45.7605 9.68C44.9872 10.1333 44.3605 10.76 43.8805 11.56C43.4272 12.36 43.2005 13.28 43.2005 14.32C43.2005 15.3333 43.4405 16.2533 43.9205 17.08C44.4005 17.9067 45.0405 18.56 45.8405 19.04C46.6405 19.52 47.5072 19.76 48.4405 19.76ZM74.2667 23.44C73.0934 23.44 71.9601 23.1867 70.8667 22.68C69.7734 22.1733 68.8934 21.48 68.2267 20.6L68.4667 19.24V31.12H63.9867V5.76H67.8667L68.4667 9.68L68.0667 8.48C68.8934 7.57333 69.8934 6.82667 71.0667 6.24C72.2667 5.62667 73.6134 5.32 75.1067 5.32C76.7067 5.32 78.1334 5.69333 79.3867 6.44C80.6401 7.18667 81.6267 8.25333 82.3467 9.64C83.0934 11 83.4667 12.6133 83.4667 14.48C83.4667 16.3467 83.0667 17.9467 82.2667 19.28C81.4667 20.6133 80.3734 21.64 78.9867 22.36C77.6001 23.08 76.0267 23.44 74.2667 23.44ZM73.3867 19.88C74.3734 19.88 75.2801 19.6533 76.1067 19.2C76.9601 18.7467 77.6401 18.12 78.1467 17.32C78.6534 16.4933 78.9067 15.5733 78.9067 14.56C78.9067 13.4933 78.6667 12.56 78.1867 11.76C77.7334 10.9333 77.1067 10.2933 76.3067 9.84C75.5334 9.36 74.6667 9.12 73.7067 9.12C72.8267 9.12 72.0401 9.26667 71.3467 9.56C70.6534 9.85333 70.0667 10.28 69.5867 10.84C69.1067 11.3733 68.7334 12.0133 68.4667 12.76V16.16C68.6534 16.88 68.9734 17.52 69.4267 18.08C69.8801 18.64 70.4534 19.08 71.1467 19.4C71.8401 19.72 72.5867 19.88 73.3867 19.88ZM92.2455 6.08L92.6455 9.72L92.4855 9.24C93.0722 8.06667 93.9388 7.13333 95.0855 6.44C96.2588 5.72 97.6455 5.36 99.2455 5.36C100.845 5.36 102.165 5.82667 103.205 6.76C104.245 7.69333 104.779 8.92 104.805 10.44V23H100.325V12.04C100.299 11.1867 100.059 10.5067 99.6055 10C99.1522 9.46667 98.4322 9.18667 97.4455 9.16C96.5388 9.16 95.7255 9.44 95.0055 10C94.2855 10.5333 93.7122 11.28 93.2855 12.24C92.8855 13.1733 92.6855 14.2533 92.6855 15.48V23H88.2055V6.08H92.2455ZM118.099 23.44C116.499 23.44 115.046 23.1067 113.739 22.44C112.459 21.7733 111.446 20.7867 110.699 19.48C109.952 18.1467 109.579 16.5067 109.579 14.56C109.579 12.64 109.966 11 110.739 9.64C111.539 8.25333 112.579 7.18667 113.859 6.44C115.166 5.69333 116.579 5.32 118.099 5.32C119.726 5.32 121.032 5.64 122.019 6.28C123.032 6.92 123.819 7.68 124.379 8.56L124.139 9.2L124.579 6.08H128.699V23H124.219V18.88L124.659 19.96C124.552 20.12 124.339 20.3867 124.019 20.76C123.699 21.1067 123.259 21.4933 122.699 21.92C122.139 22.3467 121.472 22.7067 120.699 23C119.952 23.2933 119.086 23.44 118.099 23.44ZM119.339 19.76C120.139 19.76 120.859 19.6133 121.499 19.32C122.166 19.0267 122.726 18.6133 123.179 18.08C123.659 17.5467 124.006 16.9067 124.219 16.16V12.48C124.006 11.7867 123.659 11.1867 123.179 10.68C122.699 10.1467 122.112 9.73333 121.419 9.44C120.752 9.14667 120.006 9 119.179 9C118.272 9 117.432 9.22667 116.659 9.68C115.886 10.1333 115.259 10.76 114.779 11.56C114.326 12.36 114.099 13.28 114.099 14.32C114.099 15.3333 114.339 16.2533 114.819 17.08C115.299 17.9067 115.939 18.56 116.739 19.04C117.539 19.52 118.406 19.76 119.339 19.76ZM148.885 21.44C148.139 22.0533 147.219 22.5467 146.125 22.92C145.059 23.2667 143.979 23.44 142.885 23.44C141.019 23.44 139.379 23.08 137.965 22.36C136.552 21.6133 135.445 20.5867 134.645 19.28C133.872 17.9467 133.485 16.36 133.485 14.52C133.485 12.68 133.899 11.0933 134.725 9.76C135.579 8.42667 136.685 7.41333 138.045 6.72C139.432 6 140.899 5.64 142.445 5.64C143.859 5.64 145.112 5.84 146.205 6.24C147.299 6.61333 148.245 7.13333 149.045 7.8L146.805 10.72C146.379 10.3733 145.819 10.0533 145.125 9.76C144.459 9.44 143.699 9.28 142.845 9.28C141.939 9.28 141.112 9.50667 140.365 9.96C139.645 10.4133 139.059 11.04 138.605 11.84C138.179 12.6133 137.965 13.5067 137.965 14.52C137.965 15.48 138.192 16.36 138.645 17.16C139.099 17.96 139.725 18.6 140.525 19.08C141.325 19.5333 142.245 19.76 143.285 19.76C143.952 19.76 144.565 19.6667 145.125 19.48C145.712 19.2667 146.219 18.9867 146.645 18.64L148.885 21.44ZM160.599 23.44C158.999 23.44 157.546 23.1067 156.239 22.44C154.959 21.7733 153.946 20.7867 153.199 19.48C152.452 18.1467 152.079 16.5067 152.079 14.56C152.079 12.64 152.466 11 153.239 9.64C154.039 8.25333 155.079 7.18667 156.359 6.44C157.666 5.69333 159.079 5.32 160.599 5.32C162.226 5.32 163.532 5.64 164.519 6.28C165.532 6.92 166.319 7.68 166.879 8.56L166.639 9.2L167.079 6.08H171.199V23H166.719V18.88L167.159 19.96C167.052 20.12 166.839 20.3867 166.519 20.76C166.199 21.1067 165.759 21.4933 165.199 21.92C164.639 22.3467 163.972 22.7067 163.199 23C162.452 23.2933 161.586 23.44 160.599 23.44ZM161.839 19.76C162.639 19.76 163.359 19.6133 163.999 19.32C164.666 19.0267 165.226 18.6133 165.679 18.08C166.159 17.5467 166.506 16.9067 166.719 16.16V12.48C166.506 11.7867 166.159 11.1867 165.679 10.68C165.199 10.1467 164.612 9.73333 163.919 9.44C163.252 9.14667 162.506 9 161.679 9C160.772 9 159.932 9.22667 159.159 9.68C158.386 10.1333 157.759 10.76 157.279 11.56C156.826 12.36 156.599 13.28 156.599 14.32C156.599 15.3333 156.839 16.2533 157.319 17.08C157.799 17.9067 158.439 18.56 159.239 19.04C160.039 19.52 160.906 19.76 161.839 19.76ZM181.425 6.08L181.825 10.88L181.665 10.2C182.145 9.18667 182.799 8.32 183.625 7.6C184.479 6.85333 185.345 6.29333 186.225 5.92C187.105 5.52 187.825 5.32 188.385 5.32L188.185 9.8C186.905 9.69333 185.785 9.93333 184.825 10.52C183.892 11.08 183.159 11.8267 182.625 12.76C182.119 13.6933 181.865 14.68 181.865 15.72V23H177.385V6.08H181.425ZM200.309 23.44C198.309 23.44 196.602 23.0533 195.189 22.28C193.776 21.5067 192.696 20.44 191.949 19.08C191.202 17.6933 190.829 16.1333 190.829 14.4C190.829 12.6933 191.256 11.16 192.109 9.8C192.962 8.44 194.109 7.36 195.549 6.56C197.016 5.73333 198.629 5.32 200.389 5.32C202.709 5.32 204.616 6 206.109 7.36C207.629 8.69333 208.642 10.5867 209.149 13.04L195.509 17.64L194.469 15.12L205.109 11.32L204.189 11.84C203.896 11.04 203.416 10.3467 202.749 9.76C202.109 9.17333 201.202 8.88 200.029 8.88C199.096 8.88 198.269 9.10667 197.549 9.56C196.829 9.98667 196.256 10.6 195.829 11.4C195.429 12.1733 195.229 13.0933 195.229 14.16C195.229 15.2533 195.456 16.2133 195.909 17.04C196.362 17.8667 196.976 18.5067 197.749 18.96C198.522 19.3867 199.402 19.6 200.389 19.6C201.082 19.6 201.749 19.48 202.389 19.24C203.029 19 203.629 18.68 204.189 18.28L206.229 21.6C205.349 22.16 204.376 22.6133 203.309 22.96C202.269 23.28 201.269 23.44 200.309 23.44Z" fill="#1B1B1B"/>
</svg>
